<svg width="251" height="121" viewBox="0 0 251 121" fill="none" xmlns="http://www.w3.org/2000/svg">
<rect width="251" height="121" fill="#009886"/>
<g clip-path="url(#clip0)">
<path d="M21.665 24.228C17.935 24.948 18.375 26.638 18.005 28.138L19.775 99.678C19.695 101.858 20.235 103.468 22.795 103.208L77.315 103.368C79.195 103.058 80.745 102.298 80.875 99.548L82.405 27.138C82.225 23.918 80.245 24.038 78.345 24.008L21.665 24.228V24.228Z" stroke="black" stroke-width="2" stroke-linecap="round" stroke-linejoin="round"/>
<path d="M26.275 39.778V52.068L38.185 51.578L39.225 40.268L26.275 39.778Z" fill="white" fill-opacity="0.99219" stroke="black" stroke-linejoin="round"/>
<path d="M44.145 48.388L75.955 47.968L44.145 48.388Z" fill="white" fill-opacity="0.99219"/>
<path d="M44.145 48.388L75.955 47.968" stroke="black" stroke-linejoin="round"/>
<path d="M42.835 65.858H74.635H42.835Z" fill="white" fill-opacity="0.99219"/>
<path d="M42.835 65.858H74.635" stroke="black" stroke-linejoin="round"/>
<path d="M43.435 83.858L75.145 84.158L43.435 83.858Z" fill="white" fill-opacity="0.99219"/>
<path d="M43.435 83.858L75.145 84.158" stroke="black" stroke-linejoin="round"/>
<path d="M29.975 43.588L28.745 44.608L32.285 48.888L43.035 39.408L41.185 37.498L32.515 46.138L29.975 43.588Z" fill="#FF0000" fill-opacity="0.99219" stroke="#FF0000" stroke-linejoin="round"/>
<path d="M26.405 57.258V69.548L38.325 69.058L39.355 57.758L26.405 57.258Z" fill="white" fill-opacity="0.99219" stroke="black" stroke-linejoin="round"/>
<path d="M26.905 75.698V87.988L38.825 87.498L39.865 76.188L26.905 75.698Z" fill="white" fill-opacity="0.99219" stroke="black" stroke-linejoin="round"/>
</g>
<path d="M101.08 26H106.12L118.08 44.08V26H123.2V54H119L106.2 34.8V54H101.08V26ZM143.881 47.36H133.681L131.361 54H126.401L136.361 26H141.201L151.161 54H146.201L143.881 47.36ZM142.281 42.88L138.801 32.88L135.281 42.88H142.281ZM154.361 26H159.401L171.361 44.08V26H176.481V54H172.281L159.481 34.8V54H154.361V26ZM182.643 26H200.563V30.96H187.883V36.92H197.723V41.88H187.883V49.04H200.963V54H182.643V26ZM204.537 36.24L206.257 31.44H204.217V26H209.417V30.96L206.857 36.24H204.537ZM222.52 54.56C220.947 54.56 219.254 54.3467 217.44 53.92C215.654 53.4933 214.254 53.0267 213.24 52.52L213.84 47.08C217.36 48.7867 220.454 49.64 223.12 49.64C224.534 49.64 225.64 49.3733 226.44 48.84C227.24 48.28 227.64 47.4667 227.64 46.4C227.64 45.6 227.414 44.9467 226.96 44.44C226.534 43.9067 225.907 43.4667 225.08 43.12C224.254 42.7467 222.934 42.24 221.12 41.6C219.414 41.0133 218 40.4 216.88 39.76C215.76 39.0933 214.867 38.2533 214.2 37.24C213.56 36.2 213.24 34.9333 213.24 33.44C213.24 31.04 214.12 29.1067 215.88 27.64C217.64 26.1733 220.16 25.44 223.44 25.44C224.987 25.44 226.52 25.6133 228.04 25.96C229.587 26.3067 231 26.7333 232.28 27.24L231.76 32.48C230.107 31.76 228.587 31.2267 227.2 30.88C225.84 30.5067 224.48 30.32 223.12 30.32C221.6 30.32 220.44 30.5733 219.64 31.08C218.84 31.5867 218.44 32.32 218.44 33.28C218.44 34.0267 218.654 34.64 219.08 35.12C219.507 35.6 220.08 36 220.8 36.32C221.547 36.64 222.64 37.0267 224.08 37.48C227.307 38.4933 229.654 39.6667 231.12 41C232.614 42.3067 233.36 44.1067 233.36 46.4C233.36 48.5867 232.6 50.4933 231.08 52.12C229.56 53.7467 226.707 54.56 222.52 54.56Z" fill="white"/>
<path d="M99.848 66.2H102.872L110.048 77.048V66.2H113.12V83H110.6L102.92 71.48V83H99.848V66.2ZM124.089 83.336C122.505 83.336 121.081 82.976 119.817 82.256C118.569 81.52 117.585 80.496 116.865 79.184C116.161 77.856 115.809 76.328 115.809 74.6C115.809 72.872 116.161 71.352 116.865 70.04C117.585 68.712 118.569 67.688 119.817 66.968C121.081 66.232 122.505 65.864 124.089 65.864C125.673 65.864 127.089 66.232 128.337 66.968C129.601 67.688 130.585 68.712 131.289 70.04C132.009 71.352 132.369 72.872 132.369 74.6C132.369 76.328 132.009 77.856 131.289 79.184C130.585 80.496 129.601 81.52 128.337 82.256C127.089 82.976 125.673 83.336 124.089 83.336ZM124.089 80.36C125.721 80.36 126.969 79.832 127.833 78.776C128.713 77.72 129.153 76.328 129.153 74.6C129.153 72.872 128.713 71.48 127.833 70.424C126.969 69.368 125.721 68.84 124.089 68.84C122.457 68.84 121.201 69.368 120.321 70.424C119.457 71.48 119.025 72.872 119.025 74.6C119.025 76.328 119.457 77.72 120.321 78.776C121.201 79.832 122.457 80.36 124.089 80.36ZM138.01 69.176H133.258V66.2H145.834V69.176H141.082V83H138.01V69.176ZM148.036 66.2H158.788V69.176H151.18V72.752H157.084V75.728H151.18V80.024H159.028V83H148.036V66.2ZM161.172 72.344L162.204 69.464H160.98V66.2H164.1V69.176L162.564 72.344H161.172ZM171.962 83.336C171.018 83.336 170.002 83.208 168.914 82.952C167.842 82.696 167.002 82.416 166.394 82.112L166.754 78.848C168.866 79.872 170.722 80.384 172.322 80.384C173.17 80.384 173.834 80.224 174.314 79.904C174.794 79.568 175.034 79.08 175.034 78.44C175.034 77.96 174.898 77.568 174.626 77.264C174.37 76.944 173.994 76.68 173.498 76.472C173.002 76.248 172.21 75.944 171.122 75.56C170.098 75.208 169.25 74.84 168.578 74.456C167.906 74.056 167.37 73.552 166.97 72.944C166.586 72.32 166.394 71.56 166.394 70.664C166.394 69.224 166.922 68.064 167.978 67.184C169.034 66.304 170.546 65.864 172.514 65.864C173.442 65.864 174.362 65.968 175.274 66.176C176.202 66.384 177.05 66.64 177.818 66.944L177.506 70.088C176.514 69.656 175.602 69.336 174.77 69.128C173.954 68.904 173.138 68.792 172.322 68.792C171.41 68.792 170.714 68.944 170.234 69.248C169.754 69.552 169.514 69.992 169.514 70.568C169.514 71.016 169.642 71.384 169.898 71.672C170.154 71.96 170.498 72.2 170.93 72.392C171.378 72.584 172.034 72.816 172.898 73.088C174.834 73.696 176.242 74.4 177.122 75.2C178.018 75.984 178.466 77.064 178.466 78.44C178.466 79.752 178.01 80.896 177.098 81.872C176.186 82.848 174.474 83.336 171.962 83.336Z" fill="black"/>
<defs>
<clipPath id="clip0">
<rect width="66.4" height="81.363" fill="white" transform="translate(17 23)"/>
</clipPath>
</defs>
</svg>
